<svg width="120" height="95" viewBox="0 0 120 95" fill="none" xmlns="http://www.w3.org/2000/svg">
<path fill-rule="evenodd" clip-rule="evenodd" d="M98.7042 8.03994C99.1283 7.53664 99.8816 7.47265 100.387 7.89467V7.89467C100.895 8.31916 100.963 9.07747 100.536 9.58373L98.9913 11.4173C98.5672 11.9206 97.8139 11.9846 97.3089 11.5626V11.5626C96.8009 11.1381 96.7326 10.3798 97.1592 9.87356L98.7042 8.03994Z" fill="url(#paint0_linear_0_2668)"/>
<path fill-rule="evenodd" clip-rule="evenodd" d="M110.601 26.9254C111.251 26.8114 111.87 27.2449 111.985 27.8942V27.8942C112.1 28.5448 111.665 29.1654 111.015 29.2797L108.642 29.6963C107.992 29.8103 107.373 29.3768 107.258 28.7276V28.7276C107.143 28.077 107.578 27.4563 108.228 27.3421L110.601 26.9254Z" fill="url(#paint1_linear_0_2668)"/>
<path fill-rule="evenodd" clip-rule="evenodd" d="M107.519 49.004C108.092 49.3339 108.288 50.068 107.956 50.6406V50.6406C107.626 51.2102 106.897 51.4063 106.326 51.0781L104.242 49.8796C103.668 49.5498 103.472 48.8156 103.804 48.2431V48.2431C104.134 47.6735 104.863 47.4774 105.434 47.8055L107.519 49.004Z" fill="url(#paint2_linear_0_2668)"/>
<path fill-rule="evenodd" clip-rule="evenodd" d="M90.9109 63.9456C91.1379 64.5667 90.8134 65.2556 90.1916 65.481V65.481C89.5722 65.7055 88.884 65.3878 88.6578 64.769L87.8367 62.5226C87.6097 61.9014 87.9342 61.2125 88.556 60.9872V60.9872C89.1754 60.7627 89.8636 61.0803 90.0898 61.6991L90.9109 63.9456Z" fill="url(#paint3_linear_0_2668)"/>
<path fill-rule="evenodd" clip-rule="evenodd" d="M68.5424 64.769C68.3162 65.3878 67.628 65.7055 67.0086 65.481V65.481C66.3869 65.2556 66.0623 64.5667 66.2894 63.9456L67.1105 61.6991C67.3366 61.0803 68.0248 60.7627 68.6442 60.9872V60.9872C69.266 61.2125 69.5905 61.9014 69.3635 62.5226L68.5424 64.769Z" fill="url(#paint4_linear_0_2668)"/>
<path fill-rule="evenodd" clip-rule="evenodd" d="M50.8741 51.0781C50.3033 51.4063 49.5741 51.2101 49.2439 50.6406V50.6406C48.9119 50.068 49.1079 49.3339 49.6816 49.004L51.7662 47.8055C52.337 47.4774 53.0662 47.6735 53.3964 48.2431V48.2431C53.7284 48.8156 53.5324 49.5498 52.9587 49.8796L50.8741 51.0781Z" fill="url(#paint5_linear_0_2668)"/>
<path fill-rule="evenodd" clip-rule="evenodd" d="M46.1856 29.2797C45.5349 29.1654 45.1003 28.5448 45.2155 27.8942V27.8942C45.3305 27.2449 45.9496 26.8114 46.599 26.9255L48.9719 27.3421C49.6226 27.4564 50.0572 28.077 49.942 28.7276V28.7276C49.827 29.3769 49.2079 29.8104 48.5585 29.6963L46.1856 29.2797Z" fill="url(#paint6_linear_0_2668)"/>
<path fill-rule="evenodd" clip-rule="evenodd" d="M56.664 9.58373C56.2374 9.07747 56.3057 8.31916 56.8137 7.89467V7.89467C57.3187 7.47265 58.072 7.53664 58.4961 8.03994L60.0412 9.87355C60.4678 10.3798 60.3995 11.1381 59.8915 11.5626V11.5626C59.3864 11.9846 58.6331 11.9206 58.209 11.4173L56.664 9.58373Z" fill="url(#paint7_linear_0_2668)"/>
<rect x="77.3999" width="2.4" height="4.77987" rx="1.1952" fill="url(#paint8_linear_0_2668)"/>
<ellipse cx="78.8137" cy="33.5696" rx="26.4407" ry="26.3998" fill="url(#paint9_linear_0_2668)"/>
<path fill-rule="evenodd" clip-rule="evenodd" d="M92.0339 95H38.923C38.9148 95 38.9065 95 38.8983 95C38.8901 95 38.8818 95 38.8736 95H37.1186V94.9603C16.4618 94.0377 0 77.1335 0 56.4156C0 35.1061 17.4154 17.8313 38.8983 17.8313C56.1172 17.8313 70.723 28.9291 75.8427 44.3072C80.4119 41.0623 85.9997 39.1542 92.0339 39.1542C107.479 39.1542 120 51.6557 120 67.0771C120 82.1586 108.025 94.4475 93.0508 94.9819V95H92.0339Z" fill="url(#paint10_radial_0_2668)"/>
<defs>
<linearGradient id="paint0_linear_0_2668" x1="99.7544" y1="7.61305" x2="98.05" y2="9.64415" gradientUnits="userSpaceOnUse">
<stop stop-color="#FFC100"/>
<stop offset="1" stop-color="#FF8E00"/>
</linearGradient>
<linearGradient id="paint1_linear_0_2668" x1="111.68" y1="27.2756" x2="109.065" y2="27.7368" gradientUnits="userSpaceOnUse">
<stop stop-color="#FFC100"/>
<stop offset="1" stop-color="#FF8E00"/>
</linearGradient>
<linearGradient id="paint2_linear_0_2668" x1="108.123" y1="49.9698" x2="105.824" y2="48.6424" gradientUnits="userSpaceOnUse">
<stop stop-color="#FFC100"/>
<stop offset="1" stop-color="#FF8E00"/>
</linearGradient>
<linearGradient id="paint3_linear_0_2668" x1="90.7513" y1="65.0737" x2="89.8459" y2="62.5862" gradientUnits="userSpaceOnUse">
<stop stop-color="#FFC100"/>
<stop offset="1" stop-color="#FF8E00"/>
</linearGradient>
<linearGradient id="paint4_linear_0_2668" x1="67.6992" y1="65.5288" x2="68.6046" y2="63.0413" gradientUnits="userSpaceOnUse">
<stop stop-color="#FFC100"/>
<stop offset="1" stop-color="#FF8E00"/>
</linearGradient>
<linearGradient id="paint5_linear_0_2668" x1="49.7416" y1="51.1201" x2="52.0407" y2="49.7927" gradientUnits="userSpaceOnUse">
<stop stop-color="#FFC100"/>
<stop offset="1" stop-color="#FF8E00"/>
</linearGradient>
<linearGradient id="paint6_linear_0_2668" x1="45.2903" y1="28.5796" x2="47.9058" y2="29.0408" gradientUnits="userSpaceOnUse">
<stop stop-color="#FFC100"/>
<stop offset="1" stop-color="#FF8E00"/>
</linearGradient>
<linearGradient id="paint7_linear_0_2668" x1="56.4265" y1="8.46846" x2="58.1308" y2="10.4996" gradientUnits="userSpaceOnUse">
<stop stop-color="#FFC100"/>
<stop offset="1" stop-color="#FF8E00"/>
</linearGradient>
<linearGradient id="paint8_linear_0_2668" x1="77.9361" y1="0.192656" x2="77.9361" y2="2.83674" gradientUnits="userSpaceOnUse">
<stop stop-color="#FFC100"/>
<stop offset="1" stop-color="#FF8E00"/>
</linearGradient>
<linearGradient id="paint9_linear_0_2668" x1="64.1875" y1="9.29792" x2="64.1875" y2="38.5051" gradientUnits="userSpaceOnUse">
<stop stop-color="#FFC100"/>
<stop offset="1" stop-color="#FF8E00"/>
</linearGradient>
<radialGradient id="paint10_radial_0_2668" cx="0" cy="0" r="1" gradientUnits="userSpaceOnUse" gradientTransform="translate(63.4108 34.5049) rotate(90) scale(90.4901 140.715)">
<stop stop-color="white"/>
<stop offset="1" stop-color="#DEE5EE"/>
</radialGradient>
</defs>
</svg>
