<svg width="20" height="22" viewBox="0 0 20 22" fill="none" xmlns="http://www.w3.org/2000/svg">
<ellipse cx="13.1358" cy="4.65384" rx="4.40678" ry="4.44629" fill="url(#paint0_linear_106_171)"/>
<path fill-rule="evenodd" clip-rule="evenodd" d="M15.339 15H6.48305H6.18644V14.9933C2.74362 14.8379 0 11.9909 0 8.50159C0 4.91262 2.90256 2.00317 6.48305 2.00317C9.35287 2.00317 11.7872 3.87228 12.6405 6.46228C13.402 5.91577 14.3333 5.59441 15.339 5.59441C17.9132 5.59441 20 7.69992 20 10.2972C20 12.8372 18.0042 14.907 15.5085 14.997V15H15.339Z" fill="url(#paint1_radial_106_171)"/>
<ellipse cx="10" cy="20.5" rx="1" ry="1.5" fill="url(#paint2_linear_106_171)"/>
<ellipse cx="6" cy="18.5" rx="1" ry="1.5" fill="url(#paint3_linear_106_171)"/>
<ellipse cx="14" cy="18.5" rx="1" ry="1.5" fill="url(#paint4_linear_106_171)"/>
<defs>
<linearGradient id="paint0_linear_106_171" x1="10.6981" y1="0.565971" x2="10.6981" y2="5.48507" gradientUnits="userSpaceOnUse">
<stop stop-color="#FFC100"/>
<stop offset="1" stop-color="#FF8E00"/>
</linearGradient>
<radialGradient id="paint1_radial_106_171" cx="0" cy="0" r="1" gradientUnits="userSpaceOnUse" gradientTransform="translate(10.5685 4.81137) rotate(90) scale(15.2404 23.4525)">
<stop stop-color="white"/>
<stop offset="1" stop-color="#DEE5EE"/>
</radialGradient>
<linearGradient id="paint2_linear_106_171" x1="9.56451" y1="19.8835" x2="9.56451" y2="21.19" gradientUnits="userSpaceOnUse">
<stop stop-color="white"/>
<stop offset="1" stop-color="white"/>
</linearGradient>
<linearGradient id="paint3_linear_106_171" x1="5.56451" y1="17.8835" x2="5.56451" y2="19.19" gradientUnits="userSpaceOnUse">
<stop stop-color="white"/>
<stop offset="1" stop-color="white"/>
</linearGradient>
<linearGradient id="paint4_linear_106_171" x1="13.5645" y1="17.8835" x2="13.5645" y2="19.19" gradientUnits="userSpaceOnUse">
<stop stop-color="white"/>
<stop offset="1" stop-color="white"/>
</linearGradient>
</defs>
</svg>
