<svg width="20" height="21" viewBox="0 0 20 21" fill="none" xmlns="http://www.w3.org/2000/svg">
<path fill-rule="evenodd" clip-rule="evenodd" d="M15.9502 2.54336C16.0748 2.39257 16.2988 2.37298 16.4477 2.49984L16.4592 2.50963C16.6051 2.63387 16.6242 2.85222 16.5021 2.99991L16.0337 3.56653C15.9091 3.71732 15.6851 3.73691 15.5362 3.61005L15.5247 3.60026C15.3788 3.47602 15.3597 3.25767 15.4818 3.10998L15.9502 2.54336Z" fill="url(#paint0_linear_0_2748)"/>
<path fill-rule="evenodd" clip-rule="evenodd" d="M10.0862 0.456652C10.0853 0.26174 10.2436 0.103505 10.4385 0.104427L10.452 0.104491C10.6443 0.1054 10.8 0.261102 10.8009 0.453441L10.8044 1.19179C10.8053 1.3867 10.6471 1.54494 10.4521 1.54402L10.4386 1.54395C10.2463 1.54304 10.0906 1.38734 10.0897 1.195L10.0862 0.456652Z" fill="url(#paint1_linear_0_2748)"/>
<path fill-rule="evenodd" clip-rule="evenodd" d="M19.4801 8.25421C19.6714 8.21998 19.8541 8.34786 19.8873 8.53932L19.8909 8.56011C19.924 8.75019 19.7972 8.93123 19.6073 8.96522L18.8953 9.09265C18.704 9.12688 18.5214 8.999 18.4881 8.80754L18.4845 8.78675C18.4515 8.59667 18.5783 8.41563 18.7682 8.38164L19.4801 8.25421Z" fill="url(#paint2_linear_0_2748)"/>
<path fill-rule="evenodd" clip-rule="evenodd" d="M18.5738 14.9359C18.7393 15.0329 18.7961 15.245 18.7013 15.4117L18.692 15.428C18.5954 15.5979 18.3786 15.6559 18.21 15.5571L17.582 15.1891C17.4164 15.0921 17.3596 14.88 17.4545 14.7133L17.4637 14.697C17.5603 14.5272 17.7772 14.4691 17.9457 14.5679L18.5738 14.9359Z" fill="url(#paint3_linear_0_2748)"/>
<path fill-rule="evenodd" clip-rule="evenodd" d="M13.6425 19.4613C13.7074 19.6423 13.6144 19.8418 13.434 19.9085L13.4228 19.9126C13.2399 19.9802 13.0371 19.8856 12.9713 19.7021L12.721 19.0041C12.6561 18.8231 12.7491 18.6235 12.9295 18.5569L12.9407 18.5527C13.1236 18.4852 13.3264 18.5798 13.3922 18.7633L13.6425 19.4613Z" fill="url(#paint4_linear_0_2748)"/>
<path fill-rule="evenodd" clip-rule="evenodd" d="M7.00064 19.7021C6.93484 19.8856 6.73198 19.9802 6.54912 19.9126L6.53791 19.9085C6.35751 19.8419 6.26448 19.6423 6.32939 19.4613L6.57968 18.7633C6.64548 18.5798 6.84833 18.4852 7.0312 18.5528L7.04241 18.5569C7.2228 18.6236 7.31584 18.8231 7.25092 19.0041L7.00064 19.7021Z" fill="url(#paint5_linear_0_2748)"/>
<path fill-rule="evenodd" clip-rule="evenodd" d="M1.76215 15.5571C1.59357 15.6559 1.37676 15.5979 1.28015 15.428L1.2709 15.4117C1.17604 15.245 1.23285 15.0329 1.39838 14.9359L2.02643 14.5679C2.19501 14.4691 2.41183 14.5272 2.50844 14.697L2.51769 14.7133C2.61254 14.88 2.55573 15.0921 2.39021 15.1891L1.76215 15.5571Z" fill="url(#paint6_linear_0_2748)"/>
<path fill-rule="evenodd" clip-rule="evenodd" d="M0.364701 8.96521C0.174791 8.93122 0.0480291 8.75018 0.0810489 8.5601L0.0846603 8.53931C0.117919 8.34785 0.30056 8.21997 0.491846 8.25421L1.2038 8.38163C1.39371 8.41562 1.52047 8.59667 1.48745 8.78675L1.48384 8.80754C1.45058 8.99899 1.26794 9.12688 1.07666 9.09264L0.364701 8.96521Z" fill="url(#paint7_linear_0_2748)"/>
<path fill-rule="evenodd" clip-rule="evenodd" d="M3.46999 2.99991C3.3479 2.85222 3.367 2.63387 3.51288 2.50963L3.52436 2.49984C3.67331 2.37299 3.89726 2.39258 4.02191 2.54337L4.49031 3.10999C4.6124 3.25768 4.5933 3.47602 4.44742 3.60027L4.43593 3.61005C4.28699 3.73691 4.06304 3.71732 3.93839 3.56653L3.46999 2.99991Z" fill="url(#paint8_linear_0_2748)"/>
<ellipse cx="9.98584" cy="10.0264" rx="6.65625" ry="6.69218" fill="url(#paint9_linear_0_2748)"/>
<defs>
<linearGradient id="paint0_linear_0_2748" x1="16.2061" y1="2.36949" x2="15.6935" y2="2.98039" gradientUnits="userSpaceOnUse">
<stop stop-color="#FFC100"/>
<stop offset="1" stop-color="#FF8E00"/>
</linearGradient>
<linearGradient id="paint1_linear_0_2748" x1="10.1385" y1="0.160911" x2="10.1385" y2="0.9591" gradientUnits="userSpaceOnUse">
<stop stop-color="#FFC100"/>
<stop offset="1" stop-color="#FF8E00"/>
</linearGradient>
<linearGradient id="paint2_linear_0_2748" x1="19.7854" y1="8.28719" x2="19.0084" y2="8.4242" gradientUnits="userSpaceOnUse">
<stop stop-color="#FFC100"/>
<stop offset="1" stop-color="#FF8E00"/>
</linearGradient>
<linearGradient id="paint3_linear_0_2748" x1="18.787" y1="15.1525" x2="18.1001" y2="14.756" gradientUnits="userSpaceOnUse">
<stop stop-color="#FFC100"/>
<stop offset="1" stop-color="#FF8E00"/>
</linearGradient>
<linearGradient id="paint4_linear_0_2748" x1="13.669" y1="19.7628" x2="13.3954" y2="19.0111" gradientUnits="userSpaceOnUse">
<stop stop-color="#FFC100"/>
<stop offset="1" stop-color="#FF8E00"/>
</linearGradient>
<linearGradient id="paint5_linear_0_2748" x1="6.82269" y1="19.952" x2="7.0963" y2="19.2003" gradientUnits="userSpaceOnUse">
<stop stop-color="#FFC100"/>
<stop offset="1" stop-color="#FF8E00"/>
</linearGradient>
<linearGradient id="paint6_linear_0_2748" x1="1.46178" y1="15.6316" x2="2.14865" y2="15.235" gradientUnits="userSpaceOnUse">
<stop stop-color="#FFC100"/>
<stop offset="1" stop-color="#FF8E00"/>
</linearGradient>
<linearGradient id="paint7_linear_0_2748" x1="0.0905269" y1="8.83195" x2="0.86752" y2="8.96896" gradientUnits="userSpaceOnUse">
<stop stop-color="#FFC100"/>
<stop offset="1" stop-color="#FF8E00"/>
</linearGradient>
<linearGradient id="paint8_linear_0_2748" x1="3.34229" y1="2.72506" x2="3.85489" y2="3.33597" gradientUnits="userSpaceOnUse">
<stop stop-color="#FFC100"/>
<stop offset="1" stop-color="#FF8E00"/>
</linearGradient>
<linearGradient id="paint9_linear_0_2748" x1="6.3038" y1="3.87372" x2="6.3038" y2="11.2775" gradientUnits="userSpaceOnUse">
<stop stop-color="#FFC100"/>
<stop offset="1" stop-color="#FF8E00"/>
</linearGradient>
</defs>
</svg>
